<mxfile host="app.diagrams.net" modified="2022-02-13T21:22:12.552Z" agent="5.0 (Windows NT 10.0; Win64; x64) AppleWebKit/537.36 (KHTML, like Gecko) Chrome/98.0.4758.80 Safari/537.36 Edg/98.0.1108.50" etag="BbZhXbf2EhCdaQUiyY-W" version="16.5.2" type="github">
  <diagram id="4dOp77udN9mFFcYwyLp_" name="Page-1">
    <mxGraphModel dx="2036" dy="749" grid="1" gridSize="10" guides="1" tooltips="1" connect="1" arrows="1" fold="1" page="1" pageScale="1" pageWidth="827" pageHeight="1169" math="0" shadow="0">
      <root>
        <mxCell id="0" />
        <mxCell id="1" parent="0" />
        <mxCell id="lz7g81XHW6oTk57TOZMo-1" value="" style="shape=table;html=1;whiteSpace=wrap;startSize=0;container=1;collapsible=0;childLayout=tableLayout;fontStyle=1;fontSize=25;swimlaneFillColor=#000000;perimeterSpacing=3;sketch=0;fillColor=#d5e8d4;strokeColor=default;strokeWidth=3;gradientColor=none;swimlaneLine=1;snapToPoint=0;fixDash=0;backgroundOutline=0;shadow=0;" vertex="1" parent="1">
          <mxGeometry x="-40" y="200" width="319" height="320" as="geometry" />
        </mxCell>
        <mxCell id="lz7g81XHW6oTk57TOZMo-33" style="shape=tableRow;horizontal=0;startSize=0;swimlaneHead=0;swimlaneBody=0;top=0;left=0;bottom=0;right=0;collapsible=0;dropTarget=0;fillColor=none;points=[[0,0.5],[1,0.5]];portConstraint=eastwest;fontStyle=1;fontSize=25;swimlaneFillColor=#000000;perimeterSpacing=3;sketch=0;strokeWidth=3;strokeColor=default;swimlaneLine=1;snapToPoint=0;fixDash=0;backgroundOutline=0;shadow=0;" vertex="1" parent="lz7g81XHW6oTk57TOZMo-1">
          <mxGeometry width="319" height="80" as="geometry" />
        </mxCell>
        <mxCell id="lz7g81XHW6oTk57TOZMo-34" value="2" style="shape=partialRectangle;html=1;whiteSpace=wrap;connectable=0;fillColor=#f8cecc;top=1;left=1;bottom=1;right=1;overflow=hidden;fontStyle=1;fontSize=25;strokeColor=default;swimlaneFillColor=#000000;perimeterSpacing=3;sketch=0;strokeWidth=3;swimlaneLine=1;snapToPoint=0;fixDash=0;backgroundOutline=0;shadow=0;" vertex="1" parent="lz7g81XHW6oTk57TOZMo-33">
          <mxGeometry width="79" height="80" as="geometry">
            <mxRectangle width="79" height="80" as="alternateBounds" />
          </mxGeometry>
        </mxCell>
        <mxCell id="lz7g81XHW6oTk57TOZMo-35" value="3" style="shape=partialRectangle;html=1;whiteSpace=wrap;connectable=0;fillColor=#f8cecc;top=1;left=1;bottom=1;right=1;overflow=hidden;fontStyle=1;fontSize=25;strokeColor=default;swimlaneFillColor=#000000;perimeterSpacing=3;sketch=0;strokeWidth=3;swimlaneLine=1;snapToPoint=0;fixDash=0;backgroundOutline=0;shadow=0;" vertex="1" parent="lz7g81XHW6oTk57TOZMo-33">
          <mxGeometry x="79" width="79" height="80" as="geometry">
            <mxRectangle width="79" height="80" as="alternateBounds" />
          </mxGeometry>
        </mxCell>
        <mxCell id="lz7g81XHW6oTk57TOZMo-36" value="3" style="shape=partialRectangle;html=1;whiteSpace=wrap;connectable=0;fillColor=#dae8fc;top=1;left=1;bottom=1;right=1;overflow=hidden;fontStyle=1;fontSize=25;strokeColor=default;swimlaneFillColor=#000000;perimeterSpacing=3;sketch=0;strokeWidth=3;swimlaneLine=1;snapToPoint=0;fixDash=0;backgroundOutline=0;shadow=0;" vertex="1" parent="lz7g81XHW6oTk57TOZMo-33">
          <mxGeometry x="158" width="79" height="80" as="geometry">
            <mxRectangle width="79" height="80" as="alternateBounds" />
          </mxGeometry>
        </mxCell>
        <mxCell id="lz7g81XHW6oTk57TOZMo-37" value="1" style="shape=partialRectangle;html=1;whiteSpace=wrap;connectable=0;fillColor=#dae8fc;top=1;left=1;bottom=1;right=1;overflow=hidden;fontStyle=1;fontSize=25;strokeColor=default;swimlaneFillColor=#000000;perimeterSpacing=3;sketch=0;strokeWidth=3;swimlaneLine=1;snapToPoint=0;fixDash=0;backgroundOutline=0;shadow=0;" vertex="1" parent="lz7g81XHW6oTk57TOZMo-33">
          <mxGeometry x="237" width="82" height="80" as="geometry">
            <mxRectangle width="82" height="80" as="alternateBounds" />
          </mxGeometry>
        </mxCell>
        <mxCell id="lz7g81XHW6oTk57TOZMo-2" value="" style="shape=tableRow;horizontal=0;startSize=0;swimlaneHead=0;swimlaneBody=0;top=0;left=0;bottom=0;right=0;collapsible=0;dropTarget=0;fillColor=none;points=[[0,0.5],[1,0.5]];portConstraint=eastwest;fontStyle=1;fontSize=25;swimlaneFillColor=#000000;perimeterSpacing=3;sketch=0;strokeWidth=3;strokeColor=default;swimlaneLine=1;snapToPoint=0;fixDash=0;backgroundOutline=0;shadow=0;" vertex="1" parent="lz7g81XHW6oTk57TOZMo-1">
          <mxGeometry y="80" width="319" height="80" as="geometry" />
        </mxCell>
        <mxCell id="lz7g81XHW6oTk57TOZMo-30" value="5" style="shape=partialRectangle;html=1;whiteSpace=wrap;connectable=0;fillColor=#f8cecc;top=1;left=1;bottom=1;right=1;overflow=hidden;fontStyle=1;fontSize=25;strokeColor=default;swimlaneFillColor=#000000;perimeterSpacing=3;sketch=0;strokeWidth=3;swimlaneLine=1;snapToPoint=0;fixDash=0;backgroundOutline=0;shadow=0;" vertex="1" parent="lz7g81XHW6oTk57TOZMo-2">
          <mxGeometry width="79" height="80" as="geometry">
            <mxRectangle width="79" height="80" as="alternateBounds" />
          </mxGeometry>
        </mxCell>
        <mxCell id="lz7g81XHW6oTk57TOZMo-27" value="4" style="shape=partialRectangle;html=1;whiteSpace=wrap;connectable=0;fillColor=#f8cecc;top=1;left=1;bottom=1;right=1;overflow=hidden;fontStyle=1;fontSize=25;strokeColor=default;swimlaneFillColor=#000000;perimeterSpacing=3;sketch=0;strokeWidth=3;swimlaneLine=1;snapToPoint=0;fixDash=0;backgroundOutline=0;shadow=0;" vertex="1" parent="lz7g81XHW6oTk57TOZMo-2">
          <mxGeometry x="79" width="79" height="80" as="geometry">
            <mxRectangle width="79" height="80" as="alternateBounds" />
          </mxGeometry>
        </mxCell>
        <mxCell id="lz7g81XHW6oTk57TOZMo-3" value="0" style="shape=partialRectangle;html=1;whiteSpace=wrap;connectable=0;fillColor=#dae8fc;top=1;left=1;bottom=1;right=1;overflow=hidden;fontStyle=1;fontSize=25;strokeColor=default;swimlaneFillColor=#000000;perimeterSpacing=3;sketch=0;strokeWidth=3;swimlaneLine=1;snapToPoint=0;fixDash=0;backgroundOutline=0;shadow=0;" vertex="1" parent="lz7g81XHW6oTk57TOZMo-2">
          <mxGeometry x="158" width="79" height="80" as="geometry">
            <mxRectangle width="79" height="80" as="alternateBounds" />
          </mxGeometry>
        </mxCell>
        <mxCell id="lz7g81XHW6oTk57TOZMo-4" value="2" style="shape=partialRectangle;html=1;whiteSpace=wrap;connectable=0;fillColor=#dae8fc;top=1;left=1;bottom=1;right=1;overflow=hidden;fontStyle=1;fontSize=25;strokeColor=default;swimlaneFillColor=#000000;perimeterSpacing=3;sketch=0;strokeWidth=3;swimlaneLine=1;snapToPoint=0;fixDash=0;backgroundOutline=0;shadow=0;" vertex="1" parent="lz7g81XHW6oTk57TOZMo-2">
          <mxGeometry x="237" width="82" height="80" as="geometry">
            <mxRectangle width="82" height="80" as="alternateBounds" />
          </mxGeometry>
        </mxCell>
        <mxCell id="lz7g81XHW6oTk57TOZMo-6" value="" style="shape=tableRow;horizontal=0;startSize=0;swimlaneHead=0;swimlaneBody=0;top=0;left=0;bottom=0;right=0;collapsible=0;dropTarget=0;fillColor=none;points=[[0,0.5],[1,0.5]];portConstraint=eastwest;fontStyle=1;fontSize=25;swimlaneFillColor=#000000;perimeterSpacing=3;sketch=0;strokeWidth=3;strokeColor=default;swimlaneLine=1;snapToPoint=0;fixDash=0;backgroundOutline=0;shadow=0;" vertex="1" parent="lz7g81XHW6oTk57TOZMo-1">
          <mxGeometry y="160" width="319" height="80" as="geometry" />
        </mxCell>
        <mxCell id="lz7g81XHW6oTk57TOZMo-31" value="6" style="shape=partialRectangle;html=1;whiteSpace=wrap;connectable=0;fillColor=#fff2cc;top=1;left=1;bottom=1;right=1;overflow=hidden;fontStyle=1;fontSize=25;strokeColor=default;swimlaneFillColor=#000000;perimeterSpacing=3;sketch=0;strokeWidth=3;swimlaneLine=1;snapToPoint=0;fixDash=0;backgroundOutline=0;shadow=0;" vertex="1" parent="lz7g81XHW6oTk57TOZMo-6">
          <mxGeometry width="79" height="80" as="geometry">
            <mxRectangle width="79" height="80" as="alternateBounds" />
          </mxGeometry>
        </mxCell>
        <mxCell id="lz7g81XHW6oTk57TOZMo-28" value="2" style="shape=partialRectangle;html=1;whiteSpace=wrap;connectable=0;fillColor=#fff2cc;top=1;left=1;bottom=1;right=1;overflow=hidden;fontStyle=1;fontSize=25;strokeColor=default;swimlaneFillColor=#000000;perimeterSpacing=3;sketch=0;strokeWidth=3;swimlaneLine=1;snapToPoint=0;fixDash=0;backgroundOutline=0;shadow=0;" vertex="1" parent="lz7g81XHW6oTk57TOZMo-6">
          <mxGeometry x="79" width="79" height="80" as="geometry">
            <mxRectangle width="79" height="80" as="alternateBounds" />
          </mxGeometry>
        </mxCell>
        <mxCell id="lz7g81XHW6oTk57TOZMo-7" value="1" style="shape=partialRectangle;html=1;whiteSpace=wrap;connectable=0;fillColor=#d5e8d4;top=1;left=1;bottom=1;right=1;overflow=hidden;fontStyle=1;fontSize=25;strokeColor=default;swimlaneFillColor=#000000;perimeterSpacing=3;sketch=0;strokeWidth=3;swimlaneLine=1;snapToPoint=0;fixDash=0;backgroundOutline=0;shadow=0;" vertex="1" parent="lz7g81XHW6oTk57TOZMo-6">
          <mxGeometry x="158" width="79" height="80" as="geometry">
            <mxRectangle width="79" height="80" as="alternateBounds" />
          </mxGeometry>
        </mxCell>
        <mxCell id="lz7g81XHW6oTk57TOZMo-8" value="1" style="shape=partialRectangle;html=1;whiteSpace=wrap;connectable=0;fillColor=#d5e8d4;top=1;left=1;bottom=1;right=1;overflow=hidden;fontStyle=1;fontSize=25;strokeColor=default;swimlaneFillColor=#000000;perimeterSpacing=3;sketch=0;strokeWidth=3;swimlaneLine=1;snapToPoint=0;fixDash=0;backgroundOutline=0;shadow=0;" vertex="1" parent="lz7g81XHW6oTk57TOZMo-6">
          <mxGeometry x="237" width="82" height="80" as="geometry">
            <mxRectangle width="82" height="80" as="alternateBounds" />
          </mxGeometry>
        </mxCell>
        <mxCell id="lz7g81XHW6oTk57TOZMo-10" value="" style="shape=tableRow;horizontal=0;startSize=0;swimlaneHead=0;swimlaneBody=0;top=0;left=0;bottom=0;right=0;collapsible=0;dropTarget=0;fillColor=none;points=[[0,0.5],[1,0.5]];portConstraint=eastwest;fontStyle=1;fontSize=25;swimlaneFillColor=#000000;perimeterSpacing=3;sketch=0;strokeWidth=3;strokeColor=default;swimlaneLine=1;snapToPoint=0;fixDash=0;backgroundOutline=0;shadow=0;" vertex="1" parent="lz7g81XHW6oTk57TOZMo-1">
          <mxGeometry y="240" width="319" height="80" as="geometry" />
        </mxCell>
        <mxCell id="lz7g81XHW6oTk57TOZMo-32" value="1" style="shape=partialRectangle;html=1;whiteSpace=wrap;connectable=0;fillColor=#fff2cc;top=1;left=1;bottom=1;right=1;overflow=hidden;fontStyle=1;fontSize=25;strokeColor=default;swimlaneFillColor=#000000;perimeterSpacing=3;sketch=0;strokeWidth=3;swimlaneLine=1;snapToPoint=0;fixDash=0;backgroundOutline=0;shadow=0;" vertex="1" parent="lz7g81XHW6oTk57TOZMo-10">
          <mxGeometry width="79" height="80" as="geometry">
            <mxRectangle width="79" height="80" as="alternateBounds" />
          </mxGeometry>
        </mxCell>
        <mxCell id="lz7g81XHW6oTk57TOZMo-29" value="3" style="shape=partialRectangle;html=1;whiteSpace=wrap;connectable=0;fillColor=#fff2cc;top=1;left=1;bottom=1;right=1;overflow=hidden;fontStyle=1;fontSize=25;strokeColor=default;swimlaneFillColor=#000000;perimeterSpacing=3;sketch=0;strokeWidth=3;swimlaneLine=1;snapToPoint=0;fixDash=0;backgroundOutline=0;shadow=0;" vertex="1" parent="lz7g81XHW6oTk57TOZMo-10">
          <mxGeometry x="79" width="79" height="80" as="geometry">
            <mxRectangle width="79" height="80" as="alternateBounds" />
          </mxGeometry>
        </mxCell>
        <mxCell id="lz7g81XHW6oTk57TOZMo-11" value="2" style="shape=partialRectangle;html=1;whiteSpace=wrap;connectable=0;fillColor=#d5e8d4;top=1;left=1;bottom=1;right=1;overflow=hidden;fontStyle=1;fontSize=25;strokeColor=default;swimlaneFillColor=#000000;perimeterSpacing=3;sketch=0;strokeWidth=3;swimlaneLine=1;snapToPoint=0;fixDash=0;backgroundOutline=0;shadow=0;" vertex="1" parent="lz7g81XHW6oTk57TOZMo-10">
          <mxGeometry x="158" width="79" height="80" as="geometry">
            <mxRectangle width="79" height="80" as="alternateBounds" />
          </mxGeometry>
        </mxCell>
        <mxCell id="lz7g81XHW6oTk57TOZMo-12" value="2" style="shape=partialRectangle;html=1;whiteSpace=wrap;connectable=0;fillColor=#d5e8d4;top=1;left=1;bottom=1;right=1;overflow=hidden;fontStyle=1;fontSize=25;strokeColor=default;swimlaneFillColor=#000000;perimeterSpacing=3;sketch=0;strokeWidth=3;swimlaneLine=1;snapToPoint=0;fixDash=0;backgroundOutline=0;shadow=0;" vertex="1" parent="lz7g81XHW6oTk57TOZMo-10">
          <mxGeometry x="237" width="82" height="80" as="geometry">
            <mxRectangle width="82" height="80" as="alternateBounds" />
          </mxGeometry>
        </mxCell>
        <mxCell id="lz7g81XHW6oTk57TOZMo-59" value="" style="shape=table;startSize=0;container=1;collapsible=0;childLayout=tableLayout;fontStyle=1;fontSize=20;labelBorderColor=none;labelBackgroundColor=none;swimlaneFillColor=#000000;shadow=0;sketch=0;swimlaneLine=0;perimeterSpacing=1;strokeWidth=3;" vertex="1" parent="1">
          <mxGeometry x="600" y="320" width="120" height="120" as="geometry" />
        </mxCell>
        <mxCell id="lz7g81XHW6oTk57TOZMo-60" value="" style="shape=tableRow;horizontal=0;startSize=0;swimlaneHead=0;swimlaneBody=0;top=0;left=0;bottom=0;right=0;collapsible=0;dropTarget=0;fillColor=none;points=[[0,0.5],[1,0.5]];portConstraint=eastwest;fontStyle=1;fontSize=20;labelBorderColor=none;labelBackgroundColor=none;swimlaneFillColor=#000000;shadow=0;sketch=0;swimlaneLine=0;perimeterSpacing=1;strokeWidth=3;" vertex="1" parent="lz7g81XHW6oTk57TOZMo-59">
          <mxGeometry width="120" height="60" as="geometry" />
        </mxCell>
        <mxCell id="lz7g81XHW6oTk57TOZMo-61" value="5" style="shape=partialRectangle;html=1;whiteSpace=wrap;connectable=0;overflow=hidden;fillColor=#f8cecc;top=1;left=1;bottom=1;right=1;pointerEvents=1;strokeColor=#000000;fontStyle=1;fontSize=20;labelBorderColor=none;labelBackgroundColor=none;swimlaneFillColor=#000000;shadow=0;sketch=0;swimlaneLine=0;perimeterSpacing=1;strokeWidth=3;" vertex="1" parent="lz7g81XHW6oTk57TOZMo-60">
          <mxGeometry width="60" height="60" as="geometry">
            <mxRectangle width="60" height="60" as="alternateBounds" />
          </mxGeometry>
        </mxCell>
        <mxCell id="lz7g81XHW6oTk57TOZMo-62" value="3" style="shape=partialRectangle;html=1;whiteSpace=wrap;connectable=0;overflow=hidden;fillColor=#dae8fc;top=1;left=1;bottom=1;right=1;pointerEvents=1;strokeColor=#000000;fontStyle=1;fontSize=20;labelBorderColor=none;labelBackgroundColor=none;swimlaneFillColor=#000000;shadow=0;sketch=0;swimlaneLine=0;perimeterSpacing=1;strokeWidth=3;" vertex="1" parent="lz7g81XHW6oTk57TOZMo-60">
          <mxGeometry x="60" width="60" height="60" as="geometry">
            <mxRectangle width="60" height="60" as="alternateBounds" />
          </mxGeometry>
        </mxCell>
        <mxCell id="lz7g81XHW6oTk57TOZMo-63" value="" style="shape=tableRow;horizontal=0;startSize=0;swimlaneHead=0;swimlaneBody=0;top=0;left=0;bottom=0;right=0;collapsible=0;dropTarget=0;fillColor=none;points=[[0,0.5],[1,0.5]];portConstraint=eastwest;fontStyle=1;fontSize=20;labelBorderColor=none;labelBackgroundColor=none;swimlaneFillColor=#000000;shadow=0;sketch=0;swimlaneLine=0;perimeterSpacing=1;strokeWidth=3;" vertex="1" parent="lz7g81XHW6oTk57TOZMo-59">
          <mxGeometry y="60" width="120" height="60" as="geometry" />
        </mxCell>
        <mxCell id="lz7g81XHW6oTk57TOZMo-64" value="6" style="shape=partialRectangle;html=1;whiteSpace=wrap;connectable=0;overflow=hidden;fillColor=#fff2cc;top=1;left=1;bottom=1;right=1;pointerEvents=1;strokeColor=#000000;fontStyle=1;fontSize=20;labelBorderColor=none;labelBackgroundColor=none;swimlaneFillColor=#000000;shadow=0;sketch=0;swimlaneLine=0;perimeterSpacing=1;strokeWidth=3;" vertex="1" parent="lz7g81XHW6oTk57TOZMo-63">
          <mxGeometry width="60" height="60" as="geometry">
            <mxRectangle width="60" height="60" as="alternateBounds" />
          </mxGeometry>
        </mxCell>
        <mxCell id="lz7g81XHW6oTk57TOZMo-65" value="2" style="shape=partialRectangle;html=1;whiteSpace=wrap;connectable=0;overflow=hidden;fillColor=#d5e8d4;top=1;left=1;bottom=1;right=1;pointerEvents=1;strokeColor=#000000;fontStyle=1;fontSize=20;labelBorderColor=none;labelBackgroundColor=none;swimlaneFillColor=#000000;shadow=0;sketch=0;swimlaneLine=0;perimeterSpacing=1;strokeWidth=3;" vertex="1" parent="lz7g81XHW6oTk57TOZMo-63">
          <mxGeometry x="60" width="60" height="60" as="geometry">
            <mxRectangle width="60" height="60" as="alternateBounds" />
          </mxGeometry>
        </mxCell>
        <mxCell id="lz7g81XHW6oTk57TOZMo-111" value="" style="endArrow=classic;html=1;rounded=0;fontSize=25;strokeWidth=5;" edge="1" parent="1">
          <mxGeometry width="50" height="50" relative="1" as="geometry">
            <mxPoint x="360" y="359.5" as="sourcePoint" />
            <mxPoint x="560" y="359.5" as="targetPoint" />
          </mxGeometry>
        </mxCell>
        <mxCell id="lz7g81XHW6oTk57TOZMo-112" value="&lt;b&gt;Max Pooling&lt;/b&gt;" style="text;html=1;align=center;verticalAlign=middle;resizable=0;points=[];autosize=1;strokeColor=none;fillColor=none;fontSize=25;" vertex="1" parent="1">
          <mxGeometry x="365" y="300" width="160" height="40" as="geometry" />
        </mxCell>
      </root>
    </mxGraphModel>
  </diagram>
</mxfile>
